<?xml version="1.0" encoding="utf-8"?>
<!-- Generator: Adobe Illustrator 15.1.0, SVG Export Plug-In . SVG Version: 6.00 Build 0)  -->
<!DOCTYPE svg PUBLIC "-//W3C//DTD SVG 1.1//EN" "http://www.w3.org/Graphics/SVG/1.1/DTD/svg11.dtd">
<svg version="1.1" xmlns="http://www.w3.org/2000/svg" xmlns:xlink="http://www.w3.org/1999/xlink" x="0px" y="0px" width="100px"
	 height="92.326px" viewBox="0 0 100 92.326" enable-background="new 0 0 100 92.326" xml:space="preserve">
<g id="Layer_1" display="none">
	<g id="Home">
		<polygon display="inline" fill="#58595B" points="82,36.803 82,13.162 68,13.162 68,22.521 50,4.162 0,55.162 12,55.162 
			12,88.162 43,88.162 43,61.162 57,61.162 57,88.162 88,88.162 88,55.162 100,55.162 		"/>
	</g>
	<g id="Layer_2">
		<g display="inline">
			<path fill="#58595B" d="M98.593,3.867v64.896c0,6.038-5.268,11.436-10.793,11.436H14.039c-9.124,0-14.003-4.756-14.003-16.319
				V16.462h13.621V3.867H98.593L98.593,3.867z M13.656,23.399H6.972v40.479c0,5.908,1.412,8.741,3.21,8.741
				c2.187,0,3.474-2.833,3.474-8.741V23.399z M91.654,10.807H20.593v53.071c0,4.109-0.77,7.066-1.928,9.377H87.8
				c2.312,0,3.854-2.693,3.854-4.492V10.807z M47.965,35.222H31.646v-2.313h16.319V35.222z M47.965,42.803H31.646V40.49h16.319
				V42.803z M47.965,50.127H31.646v-2.315h16.319V50.127z M47.965,57.192H31.646v-2.311h16.319V57.192z M47.965,64.519H31.646
				v-2.311h16.319V64.519z M34.085,20.959h42.792v4.498H34.085V20.959z M54.391,32.908h27.366v26.085H54.391V32.908z"/>
		</g>
	</g>
	<g id="Mail">
		<polygon display="inline" fill="#58595B" points="50.001,69.185 50.001,69.187 50,69.185 0,33.626 0,88.162 100,88.162 
			100,33.627 		"/>
		<polygon display="inline" fill="#58595B" points="99.497,24.162 0.504,24.162 50,59.26 		"/>
	</g>
	<g id="news">
		<path display="inline" fill="#58595B" d="M96.079,37.255c-2.146,0-4.291,0-6.437,0V14.026L50,40.282L10.357,14.026v23.229
			c-2.145,0-4.291,0-6.436,0c-5.229,0-5.229,8.109,0,8.109c2.146,0,4.291,0,6.436,0v21.175L50,88.162l39.643-21.623V45.364
			c2.146,0,4.291,0,6.438,0C101.307,45.364,101.307,37.255,96.079,37.255z"/>
		<circle display="inline" fill="#58595B" cx="50" cy="10.766" r="14.93"/>
	</g>
	<g id="Layer_5">
		<g display="inline">
			<path fill="#58595B" d="M60.116,32.078c-1.642,1.639-3.854,2.583-6.08,2.583c-1.96,0-3.773-0.728-5.106-2.05l-20.158-20.17
				l-1.826,1.826l6.962,6.961L11.341,43.796c-0.666,0.666-1.199,1.436-1.598,2.286c-0.626,1.323-0.882,2.78-0.76,4.228
				c-5.958-6.021-9.228-13.66-9.218-21.523c0.01-7.516,3.005-14.631,8.429-20.024c5.424-5.394,12.62-8.367,20.271-8.367
				c4.522,0,8.827,1.015,12.807,3.005c1.619,0.799,3.197,1.784,4.685,2.942l0.708,0.554L60.66,20.88
				C63.58,23.824,63.346,28.847,60.116,32.078z"/>
			<path fill="#58595B" d="M44.213,31.533L21.646,54.101c-1.056,1.047-2.482,1.629-3.987,1.629c-1.611,0-3.148-0.645-4.317-1.812
				c-1.169-1.169-1.813-2.696-1.813-4.317c0-1.517,0.571-2.932,1.629-3.988l22.566-22.567L44.213,31.533z"/>
			<path fill="#58595B" d="M99.734,28.786c0.011,7.915-3.303,15.595-9.332,21.633c-3.586,3.58-7.721,7.711-11.943,11.938
				L54.076,86.531c-1.055,1.055-2.473,1.631-3.987,1.631c-1.621,0-3.159-0.646-4.317-1.815c-1.138-1.139-1.774-2.635-1.804-4.213
				c-0.031-1.548,0.543-3.005,1.62-4.092l23.704-23.716l-2.213-2.214L43.372,75.828c-1.056,1.047-2.481,1.63-3.988,1.63
				c-1.61,0-3.148-0.645-4.318-1.812c-1.168-1.17-1.813-2.697-1.813-4.317c0-1.519,0.574-2.933,1.63-3.989l23.706-23.715
				L56.066,41.1L32.349,64.806c-1.056,1.057-2.471,1.631-3.987,1.631c-1.62,0-3.159-0.646-4.318-1.814
				c-1.137-1.139-1.773-2.635-1.805-4.213c-0.042-1.549,0.543-3.004,1.62-4.094L46.427,33.75l0.687,0.687
				c1.825,1.816,4.287,2.809,6.92,2.809c2.883,0,5.764-1.22,7.907-3.342c4.224-4.245,4.471-10.899,0.531-14.836L51.484,8.075
				c5.33-4.961,12.24-7.679,19.552-7.679c7.637,0,14.836,2.973,20.271,8.366C96.73,14.154,99.725,21.27,99.734,28.786z"/>
		</g>
	</g>
	<g id="Layer_6" display="inline">
		<g>
			<path fill="#58595B" d="M50,88.332c25.035,0,45.331-20.296,45.331-45.332S75.035-2.332,50-2.332
				C24.964-2.332,4.668,17.964,4.668,43S24.964,88.332,50,88.332z M49.709,11.871c4.167,0,7.001,3.167,7.001,7.251
				c0,4.334-3.084,7.334-7.001,7.334c-3.834,0-6.919-3-6.919-7.334C42.79,14.872,45.875,11.871,49.709,11.871z M38.707,70.63
				c4.917,0,5.335-0.749,5.335-6.917V44.625c0-6.167-0.333-6.584-5.335-6.584v-3.333c5.084-0.335,10.502-1.668,16.253-4.084
				l1.418,0.75v32.421c0,6.085,0.499,6.836,4.916,6.836v3.498H38.707V70.63z"/>
		</g>
	</g>
</g>
<g id="Layer_2_1_">
	<g>
		<path fill="#58595B" d="M60.082,27.896H39.918c-3.231,0-5.851,2.618-5.851,5.85v27.439c0,3.231,2.62,5.853,5.851,5.853h0.033
			v19.437c0,3.23,2.546,5.852,5.689,5.852h8.721c3.141,0,5.688-2.62,5.688-5.852V67.038h0.032c3.23,0,5.852-2.62,5.852-5.853V33.746
			C65.932,30.514,63.312,27.896,60.082,27.896z"/>
		<circle fill="#58595B" cx="50" cy="16.459" r="9.55"/>
	</g>
	<g>
		<path fill="#58595B" d="M94.986,30.177H77.708c-2.771,0-5.015,2.245-5.015,5.014v23.514c0,2.771,2.244,5.016,5.015,5.016h0.028
			v16.654c0,2.77,2.182,5.014,4.873,5.014h7.475c2.691,0,4.874-2.244,4.874-5.014V63.721h0.026c2.771,0,5.016-2.246,5.016-5.017
			V35.19C100,32.422,97.756,30.177,94.986,30.177z"/>
		<circle fill="#58595B" cx="86.348" cy="20.378" r="8.184"/>
	</g>
	<g>
		<path fill="#58595B" d="M22.292,30.177H5.014C2.245,30.177,0,32.422,0,35.19v23.514c0,2.771,2.245,5.017,5.014,5.017h0.028v16.653
			c0,2.771,2.184,5.015,4.874,5.015h7.474c2.692,0,4.874-2.244,4.874-5.015V63.721h0.028c2.769,0,5.014-2.246,5.014-5.017V35.19
			C27.305,32.422,25.06,30.177,22.292,30.177z"/>
		<circle fill="#58595B" cx="13.653" cy="20.378" r="8.183"/>
	</g>
	<ellipse fill="#58595B" cx="170.965" cy="23.815" rx="37.32" ry="19.796"/>
	<ellipse fill="#888888" cx="163.388" cy="33.287" rx="37.32" ry="19.796"/>
</g>
</svg>
